<?xml version="1.0" encoding="UTF-8"?>
<svg xmlns="http://www.w3.org/2000/svg" xmlns:xlink="http://www.w3.org/1999/xlink" width="30px" height="30px" viewBox="0 0 30 30" version="1.1">
<g id="surface1">
<path style=" stroke:none;fill-rule:nonzero;fill:rgb(0%,0%,0%);fill-opacity:1;" d="M 11.199219 23.957031 C 10.171875 23.363281 10.152344 22.042969 11.148438 21.429688 C 11.289062 21.34375 11.351562 21.253906 11.34375 21.085938 C 11.328125 20.777344 11.339844 20.464844 11.339844 20.175781 C 11.1875 20.105469 11.109375 20.175781 11.023438 20.210938 C 9.539062 20.828125 8.042969 21.417969 6.464844 21.769531 C 5.824219 21.910156 5.171875 22.023438 4.515625 21.898438 C 3.863281 21.773438 3.570312 21.265625 3.769531 20.628906 C 3.953125 20.046875 4.347656 19.59375 4.757812 19.167969 C 5.886719 17.988281 7.179688 17 8.515625 16.070312 C 8.945312 15.773438 9.375 15.484375 9.804688 15.1875 C 9.882812 15.132812 9.972656 15.09375 10.019531 15.003906 C 10.011719 14.902344 9.929688 14.851562 9.867188 14.792969 C 8.757812 13.757812 7.703125 12.675781 6.808594 11.449219 C 6.320312 10.78125 5.871094 10.089844 5.726562 9.25 C 5.59375 8.472656 6.109375 7.855469 6.890625 7.816406 C 7.796875 7.769531 8.628906 8.042969 9.453125 8.355469 C 9.691406 8.445312 9.859375 8.480469 10.09375 8.285156 C 10.542969 7.90625 11.082031 7.878906 11.601562 8.140625 C 12.105469 8.398438 12.375 8.824219 12.371094 9.402344 C 12.371094 9.761719 12.484375 9.898438 12.839844 10.011719 C 13 10.0625 13.015625 9.945312 13.046875 9.855469 C 13.234375 9.351562 13.398438 8.839844 13.601562 8.34375 C 14.019531 7.300781 14.496094 6.285156 15.203125 5.402344 C 15.445312 5.101562 15.714844 4.828125 16.066406 4.648438 C 16.675781 4.328125 17.285156 4.445312 17.726562 4.972656 C 18.105469 5.429688 18.285156 5.976562 18.421875 6.539062 C 18.609375 7.316406 18.691406 8.109375 18.722656 8.910156 C 18.742188 9.347656 18.757812 9.785156 18.769531 10.261719 C 19.164062 10.144531 19.496094 9.96875 19.839844 9.828125 C 21.308594 9.222656 22.792969 8.679688 24.355469 8.375 C 24.855469 8.277344 25.363281 8.25 25.859375 8.339844 C 26.523438 8.457031 26.824219 8.988281 26.605469 9.628906 C 26.441406 10.117188 26.121094 10.511719 25.785156 10.890625 C 25.484375 11.234375 25.152344 11.542969 24.820312 11.859375 C 24.710938 11.960938 24.675781 12.054688 24.707031 12.214844 C 24.902344 13.117188 24.386719 13.875 23.488281 14.027344 C 23.175781 14.078125 22.890625 13.96875 22.613281 13.835938 C 22.519531 13.789062 22.445312 13.761719 22.347656 13.828125 C 21.636719 14.320312 20.921875 14.808594 20.210938 15.296875 C 20.175781 15.320312 20.140625 15.335938 20.089844 15.363281 C 20.308594 15.585938 20.492188 15.773438 20.679688 15.957031 C 21.820312 17.070312 22.921875 18.222656 23.757812 19.59375 C 24 19.992188 24.214844 20.40625 24.3125 20.867188 C 24.523438 21.886719 23.976562 22.472656 23.058594 22.480469 C 22.230469 22.484375 21.460938 22.265625 20.703125 21.980469 C 19.582031 21.558594 18.527344 21.003906 17.484375 20.421875 C 17.382812 20.363281 17.289062 20.28125 17.132812 20.285156 C 17.003906 20.644531 16.875 21.015625 16.742188 21.382812 C 16.332031 22.511719 15.855469 23.613281 15.167969 24.609375 C 14.910156 24.980469 14.621094 25.324219 14.257812 25.59375 C 13.5625 26.109375 12.800781 25.996094 12.285156 25.304688 C 12.09375 25.050781 11.949219 24.773438 11.859375 24.472656 C 11.785156 24.226562 11.671875 24.058594 11.394531 24.035156 C 11.332031 24.03125 11.277344 23.988281 11.199219 23.957031 M 17.386719 19.425781 C 17.410156 19.515625 17.492188 19.542969 17.558594 19.582031 C 18.695312 20.265625 19.871094 20.867188 21.113281 21.324219 C 21.738281 21.554688 22.371094 21.761719 23.050781 21.726562 C 23.535156 21.699219 23.640625 21.578125 23.585938 21.097656 C 23.582031 21.050781 23.566406 21.003906 23.554688 20.957031 C 23.460938 20.542969 23.25 20.183594 23.023438 19.835938 C 22.058594 18.351562 20.828125 17.105469 19.53125 15.917969 C 19.425781 15.824219 19.34375 15.832031 19.234375 15.902344 C 18.894531 16.113281 18.550781 16.324219 18.203125 16.523438 C 18.085938 16.589844 18.03125 16.683594 18.007812 16.804688 C 17.84375 17.675781 17.609375 18.53125 17.386719 19.425781 M 7.953125 20.566406 C 8.996094 20.21875 10.015625 19.820312 11.027344 19.390625 C 11.289062 19.277344 11.375 19.113281 11.382812 18.839844 C 11.410156 18.074219 11.492188 17.3125 11.597656 16.550781 C 11.617188 16.425781 11.597656 16.332031 11.507812 16.253906 C 11.296875 16.066406 11.078125 15.890625 10.875 15.695312 C 10.726562 15.550781 10.605469 15.554688 10.441406 15.671875 C 9.96875 16.003906 9.484375 16.316406 9.011719 16.648438 C 7.695312 17.566406 6.414062 18.523438 5.304688 19.695312 C 4.996094 20.019531 4.691406 20.355469 4.519531 20.777344 C 4.421875 21.019531 4.5 21.15625 4.753906 21.175781 C 5.003906 21.195312 5.253906 21.199219 5.5 21.171875 C 6.328125 21.070312 7.128906 20.847656 7.953125 20.566406 M 16.535156 5.261719 C 16.085938 5.453125 15.800781 5.824219 15.539062 6.207031 C 14.675781 7.472656 14.160156 8.894531 13.6875 10.335938 C 13.648438 10.457031 13.6875 10.53125 13.789062 10.597656 C 14.339844 10.960938 14.886719 11.320312 15.433594 11.6875 C 15.550781 11.765625 15.660156 11.777344 15.789062 11.710938 C 16.457031 11.378906 17.125 11.046875 17.792969 10.722656 C 17.960938 10.640625 18.011719 10.519531 18.015625 10.339844 C 18.03125 9.753906 17.992188 9.171875 17.957031 8.589844 C 17.910156 7.773438 17.804688 6.964844 17.53125 6.1875 C 17.429688 5.890625 17.3125 5.601562 17.070312 5.382812 C 16.925781 5.253906 16.769531 5.171875 16.535156 5.261719 M 18.527344 13.589844 C 18.429688 13.917969 18.582031 14.125 18.84375 14.304688 C 19.011719 14.421875 19.167969 14.566406 19.3125 14.714844 C 19.433594 14.835938 19.535156 14.828125 19.667969 14.738281 C 20.375 14.253906 21.082031 13.777344 21.796875 13.300781 C 21.945312 13.199219 21.984375 13.085938 21.9375 12.910156 C 21.882812 12.703125 21.886719 12.484375 21.941406 12.269531 C 22.175781 11.359375 23.0625 10.921875 23.929688 11.304688 C 24.121094 11.390625 24.25 11.375 24.398438 11.230469 C 24.765625 10.875 25.132812 10.519531 25.453125 10.117188 C 25.613281 9.917969 25.765625 9.710938 25.859375 9.46875 C 25.957031 9.210938 25.902344 9.097656 25.636719 9.070312 C 25.34375 9.039062 25.042969 9.023438 24.75 9.074219 C 22.699219 9.429688 20.796875 10.226562 18.910156 11.058594 C 18.761719 11.125 18.71875 11.21875 18.714844 11.375 C 18.695312 12.101562 18.625 12.824219 18.527344 13.589844 M 12.34375 12.382812 C 12.4375 12.019531 12.527344 11.652344 12.628906 11.292969 C 12.753906 10.847656 12.757812 10.847656 12.347656 10.617188 C 12.296875 10.585938 12.242188 10.566406 12.203125 10.53125 C 12.070312 10.417969 11.957031 10.433594 11.824219 10.542969 C 11.472656 10.832031 11.058594 10.902344 10.625 10.796875 C 9.9375 10.636719 9.582031 10.183594 9.511719 9.386719 C 9.5 9.226562 9.4375 9.144531 9.292969 9.09375 C 8.90625 8.957031 8.523438 8.820312 8.128906 8.714844 C 7.738281 8.609375 7.347656 8.539062 6.941406 8.574219 C 6.550781 8.609375 6.40625 8.835938 6.484375 9.167969 C 6.566406 9.53125 6.703125 9.867188 6.890625 10.183594 C 7.863281 11.835938 9.238281 13.136719 10.601562 14.445312 C 10.699219 14.539062 10.792969 14.542969 10.902344 14.472656 C 11.207031 14.292969 11.503906 14.105469 11.8125 13.9375 C 11.988281 13.839844 12.0625 13.707031 12.097656 13.523438 C 12.171875 13.152344 12.257812 12.789062 12.34375 12.382812 M 13.535156 19.046875 C 13.113281 19.246094 12.699219 19.445312 12.277344 19.640625 C 12.144531 19.699219 12.078125 19.773438 12.082031 19.929688 C 12.089844 20.289062 12.089844 20.648438 12.082031 21.011719 C 12.078125 21.183594 12.148438 21.277344 12.308594 21.328125 C 12.5 21.390625 12.675781 21.484375 12.824219 21.628906 C 13.488281 22.273438 13.425781 23.253906 12.667969 23.847656 C 12.53125 23.953125 12.484375 24.046875 12.554688 24.210938 C 12.652344 24.421875 12.726562 24.640625 12.867188 24.828125 C 13.171875 25.234375 13.386719 25.273438 13.796875 24.992188 C 13.929688 24.902344 14.050781 24.796875 14.15625 24.675781 C 14.597656 24.179688 14.921875 23.609375 15.222656 23.027344 C 15.722656 22.0625 16.074219 21.042969 16.417969 20.015625 C 16.457031 19.894531 16.449219 19.800781 16.316406 19.714844 C 15.769531 19.367188 15.230469 19.007812 14.691406 18.648438 C 14.578125 18.570312 14.476562 18.5625 14.359375 18.625 C 14.097656 18.765625 13.832031 18.898438 13.535156 19.046875 M 14.597656 17.625 C 14.636719 17.613281 14.675781 17.609375 14.710938 17.589844 C 15.550781 17.179688 16.359375 16.703125 17.175781 16.25 C 17.300781 16.179688 17.375 16.074219 17.402344 15.929688 C 17.5 15.476562 17.566406 15.019531 17.636719 14.5625 C 17.664062 14.371094 17.597656 14.242188 17.449219 14.132812 C 16.867188 13.695312 16.289062 13.253906 15.710938 12.808594 C 15.601562 12.730469 15.507812 12.714844 15.382812 12.78125 C 14.539062 13.226562 13.710938 13.695312 12.890625 14.171875 C 12.75 14.253906 12.6875 14.367188 12.664062 14.519531 C 12.59375 14.960938 12.523438 15.402344 12.441406 15.839844 C 12.417969 15.957031 12.453125 16.027344 12.53125 16.089844 C 13.199219 16.609375 13.859375 17.144531 14.597656 17.625 M 14.550781 12.011719 C 14.183594 11.765625 13.832031 11.496094 13.414062 11.28125 C 13.230469 11.925781 13.074219 12.542969 12.953125 13.171875 C 12.972656 13.1875 12.988281 13.203125 13.003906 13.21875 C 13.597656 12.890625 14.191406 12.566406 14.777344 12.242188 C 14.738281 12.109375 14.648438 12.082031 14.550781 12.011719 M 13.644531 18.152344 C 13.691406 18.113281 13.769531 18.113281 13.789062 18.011719 C 13.324219 17.660156 12.847656 17.300781 12.332031 16.914062 C 12.195312 17.578125 12.195312 18.207031 12.132812 18.863281 C 12.664062 18.652344 13.132812 18.402344 13.644531 18.152344 M 15.480469 18.046875 C 15.347656 18.113281 15.339844 18.183594 15.472656 18.265625 C 15.578125 18.332031 15.683594 18.410156 15.789062 18.476562 C 16.074219 18.660156 16.359375 18.84375 16.683594 19.050781 C 16.878906 18.40625 17.027344 17.800781 17.160156 17.136719 C 16.574219 17.457031 16.042969 17.746094 15.480469 18.046875 M 17.847656 12.878906 C 17.886719 12.433594 17.925781 11.988281 17.964844 11.492188 C 17.386719 11.75 16.875 12.011719 16.34375 12.324219 C 16.828125 12.695312 17.28125 13.039062 17.730469 13.386719 C 17.855469 13.226562 17.800781 13.066406 17.847656 12.878906 M 18.683594 15.167969 C 18.589844 15.089844 18.519531 14.976562 18.371094 14.949219 C 18.308594 15.144531 18.261719 15.339844 18.285156 15.585938 C 18.441406 15.492188 18.574219 15.410156 18.707031 15.328125 C 18.769531 15.285156 18.75 15.238281 18.683594 15.167969 M 11.570312 15.28125 C 11.621094 15.3125 11.664062 15.371094 11.75 15.328125 C 11.769531 15.183594 11.851562 15.035156 11.785156 14.851562 C 11.636719 14.910156 11.511719 14.980469 11.425781 15.097656 C 11.441406 15.183594 11.496094 15.21875 11.570312 15.28125 Z M 11.570312 15.28125 "/>
<path style=" stroke:none;fill-rule:nonzero;fill:rgb(0%,0%,0%);fill-opacity:1;" d="M 15.113281 16.4375 C 14.667969 16.488281 14.261719 16.457031 13.90625 16.183594 C 13.449219 15.832031 13.355469 15.25 13.675781 14.773438 C 14.128906 14.097656 15.011719 13.765625 15.785156 13.996094 C 16.179688 14.117188 16.492188 14.347656 16.585938 14.777344 C 16.6875 15.257812 16.480469 15.636719 16.136719 15.953125 C 15.855469 16.214844 15.511719 16.363281 15.113281 16.4375 Z M 15.113281 16.4375 "/>
</g>
</svg>
